# xmcd
# 
# Track frame offsets:
#   150
#   17094
#   29602
#   46794
#   61718
#   74179
#   85385
#   110577
#   126843
#   138377
#   151398
#   166803
#   179745
#   195186
#   208255
# 
# Disc length: 2985 seconds
# 
# Revision: 0
# Processed by: cddbd v1.5.2PL0 Copyright (c) Steve Scherf et al.
# Submitted via: VOLTOCDX V1.0.24 
# 
DISCID=d70ba70f
DTITLE=Various Artist - ALL STAR KARAOKE CLASSIC COUNTRY VOL. 2 - DISC 1
DYEAR=2007
DGENRE=Karaoke
TTITLE0=COUNTRY BUMPKIN - CAL SMITH
TTITLE1=IT'S ONLY MAKE BELIEVE - CONWAY TWITTY
TTITLE2=YOU'RE THE REASON GOD MADE OKLAHOMA - DAVID FRIZZEL AND SHELLY WEST
TTITLE3=ALMOST PERSUADED - DAVID HOUSTON
TTITLE4=I WILL ALWAYS LOVE YOU - DOLLY PARTON
TTITLE5=LOUISIANA WOMAN, MISSISSIPPI MAN - CONWAY TWITTY AND LORETTA LYNN
TTITLE6=LAST CHEATER'S WALTZ - EMMYLOU HARRIS
TTITLE7=SAVE THE LAST DANCE FOR ME - EMMYLOU HARRIS
TTITLE8=BEFORE THE NEXT TEARDROP FALLS - FREDDY FENDER
TTITLE9=WASTED DAYS AND WASTED NIGHTS - FREDDY FENDER
TTITLE10=THE GRAND TOUR - GEORGE JONES
TTITLE11=HONKY TONKIN' - HANK WILLIAMS
TTITLE12=DELTA DAWN - TANYA TUCKER
TTITLE13=ONE HAS MY NAME, ONE HAS MY HEART - JIM REEVES
TTITLE14=ROSE COLORED GLASSES - JOHN CONLEE
EXTD=
EXTT0=
EXTT1=
EXTT2=
EXTT3=
EXTT4=
EXTT5=
EXTT6=
EXTT7=
EXTT8=
EXTT9=
EXTT10=
EXTT11=
EXTT12=
EXTT13=
EXTT14=
PLAYORDER=
